<svg xmlns="http://www.w3.org/2000/svg" enable-background="new 0 0 16 16" viewBox="0 0 16 16"><path d="M8,3.5C5.519,3.5,3.5,5.519,3.5,8s2.019,4.5,4.5,4.5s4.5-2.019,4.5-4.5S10.481,3.5,8,3.5z M8,11.5c-1.93,0-3.5-1.57-3.5-3.5  S6.07,4.5,8,4.5s3.5,1.57,3.5,3.5S9.93,11.5,8,11.5z"/><rect width="1" height="2" x="7.5"/><rect width="1" height="2" x="7.5" y="14"/><rect width="2" height="1" x="14" y="7.5"/><rect width="2" height="1" y="7.5"/><rect width="1" height="2" x="12.45" y="11.95" transform="rotate(-45.001 12.95 12.95)"/><rect width="1" height="2" x="2.55" y="2.05" transform="rotate(-45.001 3.05 3.05)"/><rect width="2" height="1" x="2.05" y="12.45" transform="rotate(-45.001 3.05 12.95)"/><rect width="2" height="1" x="11.95" y="2.55" transform="rotate(-45.001 12.95 3.05)"/></svg>